# xmcd
#
# Track frame offsets:
#	150
#	11923
#	23844
#	38056
#	45601
#	57190
#	68738
#	79782
#	85698
#	98148
#	109330
#	121252
#	131967
#	142902
#	153938
#
# Disc length: 2215 seconds
#
# Revision: 0
# Processed by: cddbd v1.5.2PL0 Copyright (c) Steve Scherf et al.
# Submitted via: EasyCDDAExtractor 11.1.0.1
#
DISCID=bf08a50f
DTITLE=Jim Reeves - My lips are sealed
DYEAR=1900
DGENRE=country
TTITLE0=According to my heart
TTITLE1=My lips are sealed
TTITLE2=Highway to nowhere
TTITLE3=Oklahoma Hills
TTITLE4=Are you the one
TTITLE5=Give me one more kiss
TTITLE6=Gypsy heart
TTITLE7=Have I told you lately that I love you
TTITLE8=Heart breaking baby
TTITLE9=Hillbilly waltz
TTITLE10=How many
TTITLE11=You were mine
TTITLE12=I'm hurtin' inside
TTITLE13=Jimbo jenkins
TTITLE14=Let me love you just a little
EXTD=
EXTT0=
EXTT1=
EXTT2=
EXTT3=
EXTT4=
EXTT5=
EXTT6=
EXTT7=
EXTT8=
EXTT9=
EXTT10=
EXTT11=
EXTT12=
EXTT13=
EXTT14=
PLAYORDER=
